<?xml version="1.0" encoding="utf-8"?>
<!-- Svg Vector Icons : http://www.onlinewebfonts.com/icon -->
<!DOCTYPE svg PUBLIC "-//W3C//DTD SVG 1.1//EN" "http://www.w3.org/Graphics/SVG/1.1/DTD/svg11.dtd">
<svg version="1.1" xmlns="http://www.w3.org/2000/svg" xmlns:xlink="http://www.w3.org/1999/xlink" x="0px" y="0px" viewBox="0 0 256 256" enable-background="new 0 0 256 256" xml:space="preserve">
<metadata> Svg Vector Icons : http://www.onlinewebfonts.com/icon </metadata>
<g><g><path fill="#000000" d="M160.9,113.1c0,27.8,0,55.6,0,83.4c0,6-2.1,10.9-7,14.5c-2.6,1.9-5.5,3-8.8,3.1c-7.2,0-14.3,0.2-21.5,0c-8.3-0.2-15.2-7.3-15.6-15.6c0-0.6,0-1.2,0-1.7c0-55.8,0-111.6,0-167.4c0-7.2,3.1-12.7,9.7-15.8c2.1-1,4.5-1.5,6.8-1.6c6.6-0.2,13.1-0.1,19.7,0c9,0.1,16.1,7,16.5,15.9c0,0.9,0,1.7,0,2.6C160.9,58,160.9,85.6,160.9,113.1z"/><path fill="#000000" d="M136.7,244c-32.7,0-65.5-0.3-98.2,0.1c-16.5,0.2-27.6-12.8-28.3-26.7c-0.1-1.4-0.1-2.9-0.1-4.3c0-51.8,0-103.5,0-155.2c0-1.6,0.2-3.3,0.7-4.8c1.3-3.5,4.6-5.2,8.1-4.6c3.1,0.5,5.8,3.6,6.1,7.1c0.1,0.9,0,1.7,0,2.6c0,52,0,104,0,156c0,4.2,1.1,7.9,4.3,10.8c2.2,2,4.8,2.7,7.7,2.8c0.5,0,1.1,0,1.6,0c66.2,0,132.3,0,198.5,0c3,0,5.5,0.7,7.3,3.3c3.3,4.6,1.2,11.3-4,12.8c-1,0.3-2.2,0.3-3.3,0.3C203.6,244,170.2,244,136.7,244z"/><path fill="#000000" d="M173.5,146c0-17,0-33.9,0-50.9c0-7.8,4.2-13.9,11.1-16.3c1.8-0.6,3.8-0.9,5.7-1c6.4-0.1,12.8-0.1,19.1,0c9.6,0.1,16.9,7.3,16.9,17c0,34.2,0,68.4,0,102.5c0,9.3-6.8,16.6-16.2,16.9c-7.1,0.2-14.1,0.2-21.2,0c-8.2-0.2-15.1-7.4-15.5-15.6c0-1.2,0-2.3,0-3.5C173.5,178.7,173.5,162.3,173.5,146z"/><path fill="#000000" d="M44.6,163.2c0-11.2,0-22.3,0-33.5c0-7.3,3.2-12.8,9.8-15.9c2-0.9,4.3-1.4,6.4-1.5c6.8-0.2,13.5-0.1,20.3,0c8.7,0.1,15.9,7.1,16.3,15.9c0,0.5,0,1,0,1.4c0,22.4,0,44.9,0,67.3c0,8.2-4.9,14.8-12.5,16.8c-1.3,0.3-2.7,0.5-4,0.5c-6.6,0-13.2,0.2-19.9,0c-9.8-0.3-16.4-7.4-16.5-17.4C44.6,185.5,44.6,174.4,44.6,163.2z"/></g></g>
</svg>