<?xml version="1.0" encoding="utf-8"?>
<!-- Svg Vector Icons : http://www.onlinewebfonts.com/icon -->
<!DOCTYPE svg PUBLIC "-//W3C//DTD SVG 1.1//EN" "http://www.w3.org/Graphics/SVG/1.1/DTD/svg11.dtd">
<svg version="1.1" xmlns="http://www.w3.org/2000/svg" xmlns:xlink="http://www.w3.org/1999/xlink" x="0px" y="0px" viewBox="0 0 256 256" enable-background="new 0 0 256 256" xml:space="preserve">
<metadata> Svg Vector Icons : http://www.onlinewebfonts.com/icon </metadata>
<g><g><path fill="#000000" d="M112.6,189.6h30.8v-10.3h-30.8V189.6z M194.7,189.6h30.8v-10.3h-30.8V189.6z M30.5,189.6h30.8v-10.3H30.5V189.6z M133.1,107.5V76.7h30.8V35.6H92.1v41.1h30.8v30.8H10v112.9h236V107.5H133.1z M235.7,199.8h-51.3V169H205v-30.8h-71.8V169h20.5v30.8h-51.3V169h20.5v-30.8H51V169h20.5v30.8H20.3V169h20.5v-41h82.1v-20.5h10.3V128h82.1v41h20.5V199.8L235.7,199.8z"/></g></g>
</svg>