<?xml version="1.0" encoding="UTF-8"?>
<svg id="_圖層_1" data-name="圖層_1" xmlns="http://www.w3.org/2000/svg" version="1.1" xmlns:xlink="http://www.w3.org/1999/xlink" viewBox="0 0 256 256">
  <!-- Generator: Adobe Illustrator 29.3.1, SVG Export Plug-In . SVG Version: 2.1.0 Build 151)  -->
  <path d="M10.3,64.4l58,31.1c31.9,17.1,58.2,31.1,58.5,31.1s117.6-61.3,118.7-62.1c.1,0,.2-6.7.3-14.7v-14.5c.1,0-117.9,0-117.9,0H10v14.6c0,0,.3,14.5.3,14.5Z"/>
  <path d="M245.6,83.8c-.5,0-102.1,53.2-115.9,60.7l-2.9,1.6-58-31.1c-31.9-17.1-58.2-31.1-58.4-31.1s-.3,27.8-.3,61.7c.2,58.5.2,62,1.1,64.3,1.3,3.3,5.1,7.5,8.5,9.3l2.7,1.4h211.3l2.7-1.4c3.4-1.7,7.2-6,8.5-9.3.9-2.3.9-5.7,1.1-64.3.1-44.4,0-61.8-.4-61.8Z"/>
</svg>