<?xml version="1.0" encoding="UTF-8"?>
<svg id="_圖層_1" data-name="圖層_1" xmlns="http://www.w3.org/2000/svg" version="1.1" xmlns:xlink="http://www.w3.org/1999/xlink" viewBox="0 0 256 256">
  <!-- Generator: Adobe Illustrator 29.3.1, SVG Export Plug-In . SVG Version: 2.1.0 Build 151)  -->
  <path d="M192.2,139.1l-.4-9.1c-.4-10.8-1.4-15.2-5-22.6-6.7-13.7-18.8-23-34.3-26.4-1.5-.3-1.5-.5,3.4-5.4,3.7-3.8,5.6-6.3,7.3-9.8,5.4-11.1,5.4-23.3,0-34.3-3.4-6.8-10.5-13.8-17.5-17.2-8.6-4.2-17-5.3-26-3.4-2.3.5-6.6,2-9.5,3.4-4.2,2-6.2,3.6-10.1,7.5-5.7,5.7-8.4,10.3-10.1,17.4-2.3,9-1.1,19.3,3.2,27.5,1.2,2.3,3.9,5.8,7,8.9l5,5-4,1c-17.2,4.2-30.5,17.2-35.4,34.2-1,3.4-1.4,7-1.7,13.9l-.4,9.4h128.5Z"/>
  <path d="M206.6,199.9v-35c0-9.7-7.7-17.5-17.3-17.7h0s-122.6,0-122.6,0v.2c-8.6,1.2-15.2,8.6-15.2,17.5v33.9l-.9.4c-7.5,2.9-13.4,10.3-14.9,18.6-1.3,7.4,1.2,15.4,6.6,20.8,12,12,31.7,8.6,39.1-6.7,1.8-3.7,1.9-4.5,1.9-10.5s-.2-6.8-1.8-10.2c-2.3-4.8-6.8-9.1-11.6-11.4-.2,0-.4-.2-.6-.3v-34.6h50v34.1c-6.3,2.7-10.3,6.4-13,11.8-1.9,3.9-2,4.5-2,10.9s.2,7.1,1.7,10.3c4.7,9.6,15.7,15.3,25.8,13.5,8-1.5,14.6-6.5,18.1-13.5,1.6-3.3,1.7-4.1,1.7-10.3s0-7-2-10.9c-2.7-5.4-6.2-8.6-12.5-11.6v-34.3h51.9v33.7c-1,.4-2.4,1-3.7,1.7-5,2.5-8.4,6.1-11,11.3-1.5,3.1-1.7,4.1-1.7,9.9s0,6.8,1.9,10.5c4.6,9.8,15.4,15.6,25.5,13.7,10.9-2,18.4-9.4,20.4-20.1,1.8-10-4.3-21.4-13.6-25.7Z"/>
</svg>