<?xml version="1.0" encoding="utf-8"?>
<!-- Svg Vector Icons : http://www.onlinewebfonts.com/icon -->
<!DOCTYPE svg PUBLIC "-//W3C//DTD SVG 1.1//EN" "http://www.w3.org/Graphics/SVG/1.1/DTD/svg11.dtd">
<svg version="1.1" xmlns="http://www.w3.org/2000/svg" xmlns:xlink="http://www.w3.org/1999/xlink" x="0px" y="0px" viewBox="0 0 256 256" enable-background="new 0 0 256 256" xml:space="preserve">
<metadata> Svg Vector Icons : http://www.onlinewebfonts.com/icon </metadata>
<g><g><path fill="#000000" d="M221,185.2c15.7,6.2,25,13.9,25,22.4c0,20.1-52.8,36.4-118,36.4c-65.2,0-118-16.3-118-36.4c0-8.5,9.3-16.2,25-22.4c-3.8,2.6-5.8,5.4-5.8,8.4c0,13.7,44.2,24.7,98.8,24.7c54.6,0,98.8-11.1,98.8-24.7C226.8,190.7,224.7,187.9,221,185.2L221,185.2z M70.1,19.9c11.8,0,21.5,9.6,21.5,21.5s-9.6,21.5-21.5,21.5s-21.5-9.6-21.5-21.5S58.2,19.9,70.1,19.9L70.1,19.9z M185.6,19.9c-11.8,0-21.4,9.6-21.4,21.5s9.6,21.5,21.4,21.5c11.8,0,21.5-9.6,21.5-21.5S197.5,19.9,185.6,19.9L185.6,19.9z M164.4,143.3v56.5h15.1l6-39.6l6,39.6h16.5v-62.6c6.5-3.4,11-10.2,11-18.1V87c0-11.2-9.2-20.4-20.4-20.4h-25c-1.6,0-3.2,0.2-4.7,0.6c3.3,5.1,5.3,11.2,5.3,17.8v34.9C174.3,128.8,170.6,137.2,164.4,143.3L164.4,143.3z M128.4,12c12.9,0,23.3,10.5,23.3,23.3s-10.5,23.3-23.3,23.3S105,48.2,105,35.3C105,22.4,115.5,12,128.4,12L128.4,12z M151.4,139.6c7.2-3.7,12.1-11.1,12.1-19.7V85.1c0-12.2-10-22.2-22.2-22.2h-27.3c-12.2,0-22.2,10-22.2,22.2v34.9c0,8.5,4.9,16,12,19.7v68.2h17.9l6.6-43.2l6.6,43.1h16.4V139.6L151.4,139.6z M91.3,143.3c-6.2-6-9.8-14.4-9.8-23.3V85.1c0-6.6,2-12.7,5.3-17.8c-1.5-0.4-3.1-0.6-4.7-0.6H56.9c-11.2,0-20.4,9.2-20.4,20.4v32c0,7.9,4.5,14.7,11,18.1v62.6H64l6-39.6l6,39.6h15.1V143.3z"/></g></g>
</svg>