<?xml version="1.0" encoding="utf-8"?>
<!-- Svg Vector Icons : http://www.onlinewebfonts.com/icon -->
<!DOCTYPE svg PUBLIC "-//W3C//DTD SVG 1.1//EN" "http://www.w3.org/Graphics/SVG/1.1/DTD/svg11.dtd">
<svg version="1.1" xmlns="http://www.w3.org/2000/svg" xmlns:xlink="http://www.w3.org/1999/xlink" x="0px" y="0px" viewBox="0 0 256 256" enable-background="new 0 0 256 256" xml:space="preserve">
<metadata> Svg Vector Icons : http://www.onlinewebfonts.com/icon </metadata>
<g><g><g><path fill="#000000" d="M162.5,10.5c-7.2,1.7-12,4.4-17.1,9.5c-6.5,6.6-9.8,14.4-9.8,23.6c0,14.8,8.9,27.2,23,32.2c2.8,1,4.6,1.3,9.4,1.4c6.3,0.2,8.8-0.1,14.3-2.2c8.4-3.1,16.3-11.7,19.3-20.8c1.2-3.8,1.4-4.9,1.4-10.7c0-5.5-0.2-6.9-1.1-9.8c-2-5.9-4.3-9.7-8.4-13.8c-6.7-6.7-13.6-9.7-22.9-10C167.2,9.9,164.4,10.1,162.5,10.5z"/><path fill="#000000" d="M61.5,78.6c-2.4,1.1-4.8,3.5-5.9,6.1c-0.9,2.1-1,3.1-0.9,8c0.2,5.2,0.3,5.7,1.6,7.9c0.9,1.4,2.3,2.9,3.8,3.8l2.3,1.4l26.1,0.1l26.1,0.1l0.7,2.5c0.4,1.4,5.1,17.8,10.4,36.5l9.8,34l3,26.7c1.6,14.7,3.1,27.8,3.4,29.1c0.9,4.7,5.2,9.3,9.8,10.6c1,0.3,8.4,0.5,17.8,0.5c15.2,0,16.2,0,18.8-1c3-1.1,6.1-4,7.5-6.8c1.2-2.6,1.5-4.5,4.2-31c1.3-13.1,2.5-24.3,2.6-24.9c0.2-1,0.5-1,2.8-1c4.7,0,9.4-2.4,12.1-6.3c3.1-4.3,3.2-4.5,6.2-41.6c1.6-18.9,2.8-35.8,2.7-37.7C226,89,222,83.1,215.7,79.9l-3.6-1.8l-9.1-0.1l-9.1-0.2l-12,14c-6.6,7.7-12.1,14-12.3,14.1c-0.1,0-5.7-6.2-12.3-13.9l-12-14H104C70.8,78,62.7,78.1,61.5,78.6z"/><path fill="#000000" d="M64.1,126.8l-0.1,6.5l-3.1,0.6c-17,3.4-27.3,16-26.6,32.3c0.3,5.3,1.3,8.8,3.8,13c4.7,7.7,12.9,11.9,32,16.3c8.9,2.1,11.4,3,13.1,4.9c1.6,1.8,1.9,5,0.5,6.7c-1.8,2.2-3.6,2.9-8.9,3.1c-4,0.2-5.4,0-8.1-0.8c-4.2-1.2-7.6-4.1-9.5-8.1l-1.3-2.7l-13,2.4c-7.1,1.3-13.1,2.6-13.2,2.7c-0.4,0.4,1,4.3,2.9,8.3c5,10.7,15.4,18,28.4,20.2l3.2,0.5v6.6v6.6h7.4h7.4v-6.6v-6.6l2.3-0.3c4.9-0.7,10.1-2.3,14.8-4.6c4.3-2.1,5.5-3,9.1-6.5c6.3-6.3,8.7-12.2,8.7-21.2c0-7.9-2.1-13.6-6.9-18.9c-4.8-5.4-11-8.2-26.1-11.8c-14.3-3.4-16.3-4.1-17.4-6.2c-2-3.9,0.2-7.5,5.2-8.5c7.1-1.5,14.3,1.3,17.4,6.8l1.4,2.6l11.7-3.7c6.4-2,11.8-3.8,12-4c0.1-0.1-0.8-2.2-2-4.7c-3.4-6.5-8-11-14.6-14.2c-5-2.4-8.6-3.5-13.1-4.1l-2.5-0.3v-6.3v-6.4h-7.4h-7.3L64.1,126.8z"/></g></g></g>
</svg>