<?xml version="1.0" encoding="utf-8"?>
<!-- Svg Vector Icons : http://www.onlinewebfonts.com/icon -->
<!DOCTYPE svg PUBLIC "-//W3C//DTD SVG 1.1//EN" "http://www.w3.org/Graphics/SVG/1.1/DTD/svg11.dtd">
<svg version="1.1" xmlns="http://www.w3.org/2000/svg" xmlns:xlink="http://www.w3.org/1999/xlink" x="0px" y="0px" viewBox="0 0 256 256" enable-background="new 0 0 256 256" xml:space="preserve">
<metadata> Svg Vector Icons : http://www.onlinewebfonts.com/icon </metadata>
<g><g><path fill="#000000" d="M149.3,119h42.2c30.1,0,54.5-24.4,54.5-54.5c0-30.1-24.4-54.5-54.5-54.5C161.4,10,137,34.4,137,64.5v42.2C137,113.5,142.5,119,149.3,119z"/><path fill="#000000" d="M191.5,137h-42.2c-6.8,0-12.3,5.5-12.3,12.3v42.2c0,30.1,24.4,54.5,54.5,54.5c30.1,0,54.5-24.4,54.5-54.5C246,161.4,221.6,137,191.5,137z"/><path fill="#000000" d="M64.5,119h42.2c6.8,0,12.3-5.5,12.3-12.3V64.5C119,34.4,94.6,10,64.5,10S10,34.4,10,64.5S34.4,119,64.5,119z"/><path fill="#000000" d="M106.7,137H64.5C34.4,137,10,161.4,10,191.5c0,30.1,24.4,54.5,54.5,54.5s54.5-24.4,54.5-54.5v-42.2C119,142.5,113.5,137,106.7,137z"/></g></g>
</svg>