<?xml version="1.0" encoding="utf-8"?>
<!-- Svg Vector Icons : http://www.onlinewebfonts.com/icon -->
<!DOCTYPE svg PUBLIC "-//W3C//DTD SVG 1.1//EN" "http://www.w3.org/Graphics/SVG/1.1/DTD/svg11.dtd">
<svg version="1.1" xmlns="http://www.w3.org/2000/svg" xmlns:xlink="http://www.w3.org/1999/xlink" x="0px" y="0px" viewBox="0 0 256 256" enable-background="new 0 0 256 256" xml:space="preserve">
<metadata> Svg Vector Icons : http://www.onlinewebfonts.com/icon </metadata>
<g><g><path fill="#000000" d="M232.4,38.6c-71.1,0-101-26.2-101.1-26.4c-0.5-1.3-1.8-2.1-3.3-2.2H128c-1.4,0-2.7,0.9-3.3,2.1c-0.1,0.3-30.3,26.5-101.1,26.5c-2,0-3.6,1.6-3.6,3.4l17.9,117.4c7.6,49.1,85,84.7,88.6,86.3l1.4,0.3l1.4-0.3c3.6-1.5,82.6-39.3,88.6-86.3L236,42C236,40.2,234.4,38.6,232.4,38.6z M128,220.4L128,220.4l-1.1-0.2c-2.8-1.2-62.3-30-69.4-67.6L39.6,60.7c0-1.5,1.3-2.7,2.8-2.7c55.5,0,83-20.5,83-20.7c0.4-1,1.5-1.7,2.6-1.7l0,0L128,220.4L128,220.4L128,220.4z"/></g></g>
</svg>