<?xml version="1.0" encoding="utf-8"?>
<!-- Svg Vector Icons : http://www.onlinewebfonts.com/icon -->
<!DOCTYPE svg PUBLIC "-//W3C//DTD SVG 1.1//EN" "http://www.w3.org/Graphics/SVG/1.1/DTD/svg11.dtd">
<svg version="1.1" xmlns="http://www.w3.org/2000/svg" xmlns:xlink="http://www.w3.org/1999/xlink" x="0px" y="0px" viewBox="0 0 256 256" enable-background="new 0 0 256 256" xml:space="preserve">
<metadata> Svg Vector Icons : http://www.onlinewebfonts.com/icon </metadata>
<g><g><g><path fill="#000000" d="M133.5,11.4c-4.4-5.2-12.5-6.1-18.7-3.7c-7,2.7-9.7,10.2-9.4,17.2c0.3,6.5,2,15.5,7.7,19.5c4.7,3.3,12.9,3.3,17.6-0.3C139.6,38.3,139.4,18.3,133.5,11.4z"/><path fill="#000000" d="M137.8,48.3c-0.7-1.1-2.5-1.5-3.5,0c-2.8,4.2-5.5,8.4-8.2,12.7c-0.1-0.1-0.1-0.3-0.2-0.4c-0.8-1.5-1.6-3.1-2.6-4.5c1.3-1.2,1.6-2.6,2-4.3c0.2-0.7-0.3-1.2-0.9-1.3c-0.2-0.1-0.5-0.2-0.8-0.2c-1.4,0.3-2.6,0.7-4.1,0.7c-0.7,0-1.1,0-1.6,0.1c-0.1,0-0.2,0-0.4,0.1c-0.1,0-0.1,0-0.2,0.1c0,0,0,0.1,0,0.1c-0.2,0.3-0.4,0.8-0.1,1.2c0.8,1.5,1.7,2.6,3.1,3.5c-0.9,1.6-1.8,3.2-2.5,5c-0.8-1.1-1.6-2.2-2.4-3.2c-2.4-3.2-4.6-6.8-7.7-9.4c-0.2-1.2-1.4-2.2-2.8-1.5C97.2,50.9,91,57,87.1,64.6c-2.7,5.2-6.5,14.4-3.9,20.2c0,0.1,0.1,0.1,0.2,0.2c0.1,0.5,0.3,0.9,1,1c10.4,1.6,21.3,2.4,31.8,2.1c13.7-0.4,28.1,0.6,41.7-1.1c1.1,1,3.4,0.6,3.5-1.4C161.9,71.3,154,50.7,137.8,48.3z"/><path fill="#000000" d="M61.2,172.8c-4.4-5.2-12.5-6.1-18.7-3.7c-7,2.7-9.7,10.2-9.4,17.2c0.3,6.5,2,15.5,7.7,19.5c4.7,3.3,12.9,3.3,17.6-0.3C67.3,199.7,67.1,179.7,61.2,172.8z"/><path fill="#000000" d="M65.5,209.7c-0.7-1.1-2.5-1.5-3.5,0c-2.8,4.2-5.5,8.4-8.2,12.7c-0.1-0.1-0.1-0.3-0.2-0.4c-0.8-1.5-1.6-3.1-2.6-4.5c1.3-1.2,1.6-2.6,2-4.3c0.2-0.7-0.3-1.2-0.9-1.3c-0.2-0.1-0.5-0.2-0.8-0.2c-1.4,0.3-2.6,0.7-4.1,0.7c-0.7,0-1.1,0-1.6,0.1c-0.1,0-0.2,0-0.4,0.1c-0.1,0-0.1,0-0.2,0.1c0,0,0,0.1,0,0.2c-0.2,0.3-0.4,0.8-0.1,1.2c0.8,1.5,1.7,2.6,3.1,3.5c-0.9,1.6-1.8,3.2-2.5,5c-0.8-1.1-1.6-2.2-2.4-3.2c-2.4-3.2-4.6-6.8-7.7-9.4c-0.2-1.2-1.4-2.2-2.8-1.5c-7.5,3.9-13.7,10-17.7,17.6c-2.7,5.2-6.5,14.4-3.9,20.2c0,0.1,0.1,0.1,0.2,0.2c0.1,0.5,0.3,0.9,1,1c10.4,1.6,21.3,2.4,31.8,2.1c13.7-0.4,28.1,0.6,41.7-1.1c1.1,1,3.4,0.6,3.5-1.4C89.6,232.7,81.7,212.1,65.5,209.7z"/><path fill="#000000" d="M218.1,172.3c-4.4-5.2-12.5-6.1-18.7-3.7c-7,2.7-9.7,10.2-9.4,17.2c0.3,6.5,2,15.5,7.7,19.5c4.7,3.3,12.9,3.3,17.6-0.3C224.2,199.1,224,179.2,218.1,172.3z"/><path fill="#000000" d="M222.4,209.1c-0.7-1.1-2.5-1.5-3.5,0c-2.8,4.2-5.5,8.4-8.2,12.7c-0.1-0.1-0.1-0.3-0.2-0.4c-0.8-1.5-1.6-3.1-2.6-4.5c1.3-1.2,1.6-2.6,2-4.3c0.2-0.7-0.3-1.2-0.9-1.3c-0.2-0.1-0.5-0.2-0.8-0.2c-1.4,0.3-2.6,0.7-4.1,0.7c-0.7,0-1.1,0-1.6,0.1c-0.1,0-0.2,0-0.4,0.1c-0.1,0-0.1,0-0.2,0.1c0,0,0,0.1,0,0.1c-0.2,0.3-0.4,0.8-0.1,1.2c0.8,1.5,1.7,2.6,3.1,3.5c-0.9,1.6-1.8,3.2-2.5,5c-0.8-1.1-1.6-2.2-2.4-3.2c-2.4-3.2-4.6-6.8-7.7-9.4c-0.2-1.2-1.4-2.2-2.8-1.5c-7.5,3.9-13.7,10-17.7,17.6c-2.7,5.2-6.5,14.4-3.9,20.2c0,0.1,0.1,0.1,0.2,0.2c0.1,0.5,0.3,0.9,1,1c10.4,1.6,21.3,2.4,31.8,2.1c13.7-0.4,28.1,0.6,41.7-1.1c1.1,1,3.4,0.6,3.5-1.4C246.5,232.2,238.6,211.6,222.4,209.1z"/><path fill="#000000" d="M206.4,128.9c0-1-0.6-1.8-1.3-2.3c-0.5-0.7-1.3-1.3-2.5-1.3c-25.9-0.2-52.1-0.4-78.2-0.1c0.1-0.7,0.1-1.3,0.1-2c0.3-0.5,0.5-1,0.5-1.8c-0.3-8.3,0.6-18.4-2.1-26.3c-0.7-2.2-4.4-2.6-4.9,0c-1.4,7.3-0.2,15.6,0.3,23.2c-0.2,0.4-0.4,0.9-0.4,1.4c0,1.8-0.1,3.7,0.1,5.5c-22.7,0.4-45.4,1.2-68,3c-0.6,0-1.1,0.3-1.5,0.5c-0.7,0.2-1.4,0.7-1.7,1.6c-1.1,3.3-0.5,7.1-0.6,10.5c0,3.8-0.1,7.6-0.3,11.5c-0.2,4.2,6.3,4.2,6.5,0c0.2-3.8,0.3-7.6,0.3-11.5c0-2.3,0.1-4.7-0.1-7c49.1-0.2,98.2-2.4,147.4-2.1c-1.2,6.2-1.4,13.1-1.1,19.2c-0.6,3.4,5.9,5.4,6.3,0.4C205.8,144,206.7,136.2,206.4,128.9z"/></g><g></g><g></g><g></g><g></g><g></g><g></g><g></g><g></g><g></g><g></g><g></g><g></g><g></g><g></g><g></g></g></g>
</svg>