<?xml version="1.0" encoding="utf-8"?>
<!-- Svg Vector Icons : http://www.onlinewebfonts.com/icon -->
<!DOCTYPE svg PUBLIC "-//W3C//DTD SVG 1.1//EN" "http://www.w3.org/Graphics/SVG/1.1/DTD/svg11.dtd">
<svg version="1.1" xmlns="http://www.w3.org/2000/svg" xmlns:xlink="http://www.w3.org/1999/xlink" x="0px" y="0px" viewBox="0 0 256 256" enable-background="new 0 0 256 256" xml:space="preserve">
<metadata> Svg Vector Icons : http://www.onlinewebfonts.com/icon </metadata>
<g><g><g><path fill="#000000" d="M113.3,17.8c-26.9,3.5-51.4,15.5-70.8,34.9c-15.2,15.2-25.5,32.7-31.3,53c-1.7,6.1-1.6,7.6,0.5,9.7c2.5,2.5,4.2,2.4,9.6-0.3c7.8-4.1,13.3-5.4,21.5-5.4c12.4,0,23.2,4.6,32.1,13.6c5.7,5.7,7.7,5.9,13.4,1c8-6.9,18.9-12,29.7-13.8c8.9-1.5,20.7-0.8,29.6,2c8.7,2.6,20.5,9.8,26.6,16.3c3.4,3.6,4.3,4.2,6.6,4.2c2.5,0,3.6-0.8,6.1-4.2c7.4-10.1,17.8-16.6,29.5-18.4c5.2-0.9,15-0.4,19.6,1c5.6,1.6,8.5,0.6,9.7-3.4c0.5-1.5,0.3-2.4-1.4-7.5c-2.5-7.6-5.8-14.9-9.4-21.3c-19.4-34-53-56.4-91.5-61.2C136,16.8,120.6,16.9,113.3,17.8z M107.5,40.2c0.3,0.5,0,0.9-6,6c-10.1,8.7-21.1,22.4-30.6,38c-5.1,8.4-5.1,8.4-15.7,6.2c-2.5-0.5-6.7-1.1-9.3-1.3c-5.7-0.4-5.7-0.5-2.3-5.8C51.3,71.5,63,60.1,75,52.6c7.6-4.7,18-9.3,26.9-11.7C106.7,39.6,107.1,39.5,107.5,40.2z"/><path fill="#000000" d="M120.9,123l-1.6,0.2l-0.1,45.9l-0.1,45.9l-1.2,1.8c-2.2,3.5-6.5,5.3-10,4.2c-2.8-0.9-4.3-2.2-5.8-5c-1.9-3.5-2.7-3.8-9.7-3.6c-5.9,0.1-6,0.1-7.2,1.5c-1.1,1.3-1.2,1.7-0.9,3.9c0.4,3.9,3.6,9.7,7.1,13.2c3.5,3.5,8.8,6.4,13.3,7.3c4.1,0.9,10.8,0.4,14.7-1.1c8.3-3.1,15-10.7,16.8-19.1c0.4-1.8,0.5-16.3,0.5-48.8v-46.3l-1.1-0.3C134.4,122.7,123.4,122.7,120.9,123z"/></g></g></g>
</svg>