<?xml version="1.0" encoding="utf-8"?>
<!-- Svg Vector Icons : http://www.onlinewebfonts.com/icon -->
<!DOCTYPE svg PUBLIC "-//W3C//DTD SVG 1.1//EN" "http://www.w3.org/Graphics/SVG/1.1/DTD/svg11.dtd">
<svg version="1.1" xmlns="http://www.w3.org/2000/svg" xmlns:xlink="http://www.w3.org/1999/xlink" x="0px" y="0px" viewBox="0 0 256 256" enable-background="new 0 0 256 256" xml:space="preserve">
<metadata> Svg Vector Icons : http://www.onlinewebfonts.com/icon </metadata>
<g><g><g><path fill="#000000" d="M42,25.2C39.5,33.8,31.8,61.1,24.5,86c-7,25-13.4,46.7-13.8,48.1c-0.9,2.3,23.4,3,117.3,3c93.9,0,118.2-0.7,117.3-3c-0.5-1.4-6.8-23.1-13.8-48.1c-7.3-25-15-52.2-17.5-60.8L209.5,10h-36.1h-36.3v36.8v36.8L153,67.9L168.8,52l6.1,6.4l6.4,6.1L154.5,91L128,117.8l-27.2-27.2l-27.2-27l5-5.2c2.7-2.9,5.9-5.2,7.3-5.2s9.3,6.8,17.7,15.2l15.4,15.2V46.8V10H82.6H46.5L42,25.2z"/><path fill="#000000" d="M10,200.6V246h118h118v-45.4v-45.4H128H10V200.6z M204,179.1c11.3,11.1,3.4,30.6-12.5,30.6c-9.3,0-18.2-8.8-18.2-18.2s8.9-18.2,18.2-18.2C195.8,173.4,200.6,175.4,204,179.1z"/></g></g></g>
</svg>