<?xml version="1.0" encoding="utf-8"?>
<!-- Svg Vector Icons : http://www.onlinewebfonts.com/icon -->
<!DOCTYPE svg PUBLIC "-//W3C//DTD SVG 1.1//EN" "http://www.w3.org/Graphics/SVG/1.1/DTD/svg11.dtd">
<svg version="1.1" xmlns="http://www.w3.org/2000/svg" xmlns:xlink="http://www.w3.org/1999/xlink" x="0px" y="0px" viewBox="0 0 256 256" enable-background="new 0 0 256 256" xml:space="preserve">
<metadata> Svg Vector Icons : http://www.onlinewebfonts.com/icon </metadata>
<g><g><path fill="#000000" d="M187,208.6H69c-6.6,0-10.5,5.3-10.5,11.8s5.3,11.8,10.5,11.8h118c6.6,0,10.5-5.3,10.5-11.8S192.3,208.6,187,208.6L187,208.6L187,208.6L187,208.6z M238.1,71c-1.3-1.3-1.3-1.3-2.6-2.6c-3.9-2.6-9.2-3.9-14.4-3.9c-13.1,0-24.9,11.8-24.9,24.9c0,7.9,3.9,15.7,10.5,21c-3.9,5.3-21,23.6-27.5,21c-11.8-3.9-14.4-53.8-14.4-57.7c11.8-1.3,21-11.8,21-24.9c0-14.4-10.5-24.9-24.9-24.9c-13.1,0-24.9,11.8-24.9,24.9c0,9.2,5.3,18.4,13.1,22.3c-2.6,7.9-14.4,34.1-21,34.1c-7.9,0-18.4-27.5-21-34.1c7.9-3.9,11.8-13.1,11.8-22.3c0-13.1-10.5-24.9-24.9-24.9c-14.4,0-24.9,11.8-24.9,24.9c0,10.5,6.6,21,17.1,23.6c1.3,0,2.6,1.3,5.3,1.3c0,0-5.3,52.5-15.7,55.1c-10.5,2.6-22.3-13.1-26.2-18.4c6.6-3.9,10.5-11.8,10.5-21c0-14.4-10.5-24.9-24.9-24.9c-2.6,0-3.9,0-6.6,1.3c-3.9,0-11.8,2.6-15.7,13.1c-1.4,2.6-2.7,6.6-2.7,10.5c0,5.3,1.3,10.5,5.3,15.7c1.3,2.6,3.9,5.3,6.6,6.6c3.9,2.6,7.9,3.9,13.1,3.9c1.3,0,2.6,0,3.9,0c1.3,6.6,11.8,74.7,26.2,76.1c0,0,110.1,0,127.2,0c15.7,0,27.5-73.4,27.5-73.4v-2.6c1.3,0,1.3,0,2.6,0c3.9,0,9.2-1.3,11.8-3.9c3.9-1.3,7.9-5.3,10.5-10.5c0-3.9,1.3-7.9,1.3-11.8C246,82.8,243.4,76.2,238.1,71L238.1,71L238.1,71L238.1,71z"/></g></g>
</svg>