<?xml version="1.0" encoding="utf-8"?>
<!-- Svg Vector Icons : http://www.onlinewebfonts.com/icon -->
<!DOCTYPE svg PUBLIC "-//W3C//DTD SVG 1.1//EN" "http://www.w3.org/Graphics/SVG/1.1/DTD/svg11.dtd">
<svg version="1.1" xmlns="http://www.w3.org/2000/svg" xmlns:xlink="http://www.w3.org/1999/xlink" x="0px" y="0px" viewBox="0 0 256 256" enable-background="new 0 0 256 256" xml:space="preserve">
<metadata> Svg Vector Icons : http://www.onlinewebfonts.com/icon </metadata>
<g><g><g><path fill="#000000" d="M21.6,10.4c-4.4,1.1-8.4,4.3-10.4,8.7L10,21.7v91.7V205l1.2,2.6c1.6,3.3,4.4,6.2,7.8,7.8l2.6,1.2l42.8,0.1l42.8,0.1l-1.6-3.6c-3.2-7-5.8-16.1-6.5-22.9l-0.3-3.1H69.1H39.3v-7.4v-7.4h29.7h29.7l0.3-3.2c0.2-1.8,0.7-4.9,1.2-7c0.5-2.1,0.9-3.9,0.9-4.2c0-0.2-12-0.4-30.9-0.4H39.3v-7.4v-7.4h33.9h33.9l2.4-4.1c1.3-2.3,3.5-5.6,4.9-7.4l2.5-3.3H78.1H39.3v-7.4v-7.4h46.8h46.7l2.3-1.6c12.9-8.7,30.2-13.6,46.3-13.1l5.6,0.1V84V69.2l-29.7-29.7L127.8,9.9l-52.2,0C46.9,10,22.6,10.2,21.6,10.4z M155.2,68.9c-10.5,0-17.8-0.1-18.8-0.4c-2.6-0.7-5.4-2.9-6.8-5.4l-1.3-2.2l-0.1-18.2L128,24.4l22.2,22.2l22.2,22.2L155.2,68.9z M157.6,91.2v7.4H98.4H39.3v-7.4v-7.4h59.1h59.1V91.2L157.6,91.2z"/><path fill="#000000" d="M171.7,113.8c-12.9,1.8-24.7,6.9-34.3,15c-12,10-19.4,22.5-22.8,38.1c-1.5,6.8-1.5,18.9,0,25.7c5.9,27.5,26,47.2,53.4,52.7c5.7,1.2,17.8,1.2,23.6,0c27.8-5.4,48.2-25.9,53.6-53.6c1.2-5.7,1.2-17.8,0-23.6c-5.4-27.5-25.5-47.8-52.7-53.4C187.1,113.6,176.6,113.2,171.7,113.8z M219.1,154.5c1.5,0.8,3.6,2.8,4.3,4.2c1.1,2,0.8,4.6-0.7,6.9c-2.1,3.3-45.2,46-47.2,46.8c-2,0.8-4.4,0.9-6.2,0.2c-1.7-0.6-28.5-27.4-29.5-29.3c-1.3-2.9-0.8-5.6,1.6-8.2c2.3-2.5,5.2-3.3,8.2-2.2c0.7,0.3,6.1,5.3,12.1,11.2l10.7,10.7l19.8-19.7c10.9-10.9,20.4-20,21.1-20.4C214.8,153.8,217.7,153.8,219.1,154.5z"/></g></g></g>
</svg>