<?xml version="1.0" encoding="utf-8"?>
<!-- Svg Vector Icons : http://www.onlinewebfonts.com/icon -->
<!DOCTYPE svg PUBLIC "-//W3C//DTD SVG 1.1//EN" "http://www.w3.org/Graphics/SVG/1.1/DTD/svg11.dtd">
<svg version="1.1" xmlns="http://www.w3.org/2000/svg" xmlns:xlink="http://www.w3.org/1999/xlink" x="0px" y="0px" viewBox="0 0 256 256" enable-background="new 0 0 256 256" xml:space="preserve">
<metadata> Svg Vector Icons : http://www.onlinewebfonts.com/icon </metadata>
<g><g><path fill="#000000" d="M231.4,86h-16v56.7c0,17.9-15.3,32.4-34,32.4h-71.2l-13.6,13.6c2.6,3.8,7.1,6.3,12.4,6.3h62.2l38,38v-38h22.3c8.1,0,14.6-5.9,14.6-13.3V99.3C246,91.9,239.5,86,231.4,86z"/><path fill="#000000" d="M103.7,159.3h77.7c10.1,0,18.2-7.4,18.2-16.6V39.7c0-9.2-8.2-16.6-18.2-16.6H28.2C18.2,23.1,10,30.5,10,39.7v102.9c0,9.2,8.2,16.6,18.2,16.6H56v47.5L103.7,159.3z M155.5,77.3c7.7,0,14,6.3,14,14c0,7.7-6.3,14-14,14s-14-6.3-14-14C141.5,83.5,147.7,77.3,155.5,77.3z M104.8,77.3c7.7,0,14,6.3,14,14c0,7.7-6.3,14-14,14c-7.7,0-14-6.3-14-14C90.8,83.5,97.1,77.3,104.8,77.3z M54.1,105.2c-7.7,0-14-6.3-14-14c0-7.7,6.3-14,14-14c7.7,0,14,6.3,14,14C68.1,99,61.8,105.2,54.1,105.2z"/></g></g>
</svg>