<?xml version="1.0" encoding="utf-8"?>
<!-- Svg Vector Icons : http://www.onlinewebfonts.com/icon -->
<!DOCTYPE svg PUBLIC "-//W3C//DTD SVG 1.1//EN" "http://www.w3.org/Graphics/SVG/1.1/DTD/svg11.dtd">
<svg version="1.1" xmlns="http://www.w3.org/2000/svg" xmlns:xlink="http://www.w3.org/1999/xlink" x="0px" y="0px" viewBox="0 0 256 256" enable-background="new 0 0 256 256" xml:space="preserve">
<metadata> Svg Vector Icons : http://www.onlinewebfonts.com/icon </metadata>
<g> <path fill="#000000" d="M128,10C63.1,10,10,63.1,10,128c0,64.9,53.1,118,118,118c64.9,0,118-53.1,118-118C246,63.1,192.9,10,128,10 z M209.4,80.8h-34.2c-3.5-15.3-9.4-28.3-16.5-42.5C179.9,46.6,198.8,60.7,209.4,80.8z M128,33.6c9.4,14.2,17.7,29.5,22.4,47.2 h-44.8C110.3,64.3,118.6,47.8,128,33.6z M37.1,151.6c-2.4-7.1-3.5-15.3-3.5-23.6c0-8.3,1.2-16.5,3.5-23.6h40.1 c-1.2,8.3-1.2,15.3-1.2,23.6c0,8.3,1.2,15.3,1.2,23.6H37.1z M46.6,175.2h34.2c3.5,15.3,9.4,28.3,16.5,42.5 C76.1,209.4,57.2,195.3,46.6,175.2z M80.8,80.8H46.6c11.8-20.1,29.5-34.2,50.7-42.5C90.2,52.5,84.3,65.5,80.8,80.8z M128,222.4 c-9.4-14.2-17.7-29.5-22.4-47.2h44.8C145.7,191.7,137.4,208.2,128,222.4z M155.1,151.6h-54.3c-1.2-8.3-2.4-15.3-2.4-23.6 c0-8.3,1.2-15.3,2.4-23.6h55.5c1.2,8.3,2.4,15.3,2.4,23.6C158.7,136.3,156.3,143.3,155.1,151.6z M158.7,217.7 c7.1-13,13-27.1,16.5-42.5h34.2C198.8,195.3,179.9,209.4,158.7,217.7z M179.9,151.6c1.2-8.3,1.2-15.3,1.2-23.6 c0-8.3-1.2-15.3-1.2-23.6H220c2.4,7.1,3.5,15.3,3.5,23.6c0,8.3-1.2,16.5-3.5,23.6H179.9z"/></g>
</svg>