<?xml version="1.0" encoding="utf-8"?>
<!-- Svg Vector Icons : http://www.onlinewebfonts.com/icon -->
<!DOCTYPE svg PUBLIC "-//W3C//DTD SVG 1.1//EN" "http://www.w3.org/Graphics/SVG/1.1/DTD/svg11.dtd">
<svg version="1.1" xmlns="http://www.w3.org/2000/svg" xmlns:xlink="http://www.w3.org/1999/xlink" x="0px" y="0px" viewBox="0 0 256 256" enable-background="new 0 0 256 256" xml:space="preserve">
<metadata> Svg Vector Icons : http://www.onlinewebfonts.com/icon </metadata>
<g><g><g><path fill="#000000" d="M63.3,41.9v26.8h-5.6h-5.6V52.5V36.4H41.7c-5.8,0-12,0.3-13.7,0.5c-6.8,1-13.2,5.7-16.4,12.1L10,52.3v86.3v86.3l1.6,3.3c2,4.1,4.8,7.3,8.3,9.4c5.7,3.4-1.6,3.2,108,3.2c108.6,0,102.3,0.2,107.6-2.9c3.4-2,6.7-5.7,8.6-9.5l1.7-3.5l0.2-85c0.1-93,0.3-87.6-2.7-92.8c-2.9-5-9.1-9.3-15.1-10.2c-1.7-0.3-8-0.5-14-0.5h-11V25.8V15.1h-10.6h-10.6v26.8v26.8h-5.6h-5.6V52.5V36.4h-43.2H84.5V25.8V15.1H73.9H63.3V41.9L63.3,41.9z M137.8,95.6c8.1,2.6,14.9,8.4,18.8,15.9c2.7,5.3,3.6,9.3,3.6,16.1v5.7h5.6h5.6v32.3v32.3h-43.4H84.5v-32.3v-32.3H90h5.6v-5.7c0-6.8,0.9-10.9,3.6-16.1C106.4,97.5,122.6,90.8,137.8,95.6z"/><path fill="#000000" d="M123.6,116.8c-2,0.9-4.6,3.7-5.5,6c-0.5,1.2-0.8,3.4-0.8,6.2v4.3h10.6h10.6v-4.4c0-3.7-0.2-4.8-1.3-7c-1.9-3.7-4.5-5.4-8.8-5.6C126.4,116.2,124.6,116.4,123.6,116.8z"/><path fill="#000000" d="M124.5,155.6c-3.6,1.1-7.2,6.1-7.2,10c0,4.3,3.5,9,7.6,10.1c10.6,2.8,18.2-10,10.3-17.5C132.1,155.3,128.6,154.4,124.5,155.6z"/></g></g></g>
</svg>