<?xml version="1.0" encoding="utf-8"?>
<!-- Svg Vector Icons : http://www.onlinewebfonts.com/icon -->
<!DOCTYPE svg PUBLIC "-//W3C//DTD SVG 1.1//EN" "http://www.w3.org/Graphics/SVG/1.1/DTD/svg11.dtd">
<svg version="1.1" xmlns="http://www.w3.org/2000/svg" xmlns:xlink="http://www.w3.org/1999/xlink" x="0px" y="0px" viewBox="0 0 256 256" enable-background="new 0 0 256 256" xml:space="preserve">
<metadata> Svg Vector Icons : http://www.onlinewebfonts.com/icon </metadata>
<g><g><g><path fill="#000000" d="M19.6,31.2c-4.8,1.7-8.2,5.5-9.2,10.3C10,43.3,9.9,63.6,10,111.2l0.1,67.2l1.4,2.8c0.9,1.9,2.1,3.4,3.7,4.6c4.4,3.5,2.2,3.3,50.4,3.3h43.1l0,10.6l-0.1,10.7l-14.6,0.2c-14,0.2-14.7,0.3-17,1.3c-4.4,2-7.8,6.5-8.6,11.5l-0.3,2h59.9H188l-0.3-2c-0.8-5-4.2-9.5-8.6-11.5c-2.3-1.1-3-1.1-17.1-1.2l-14.7-0.1v-10.7v-10.8l44.2-0.1c44-0.1,44.1-0.1,46.3-1.1c2.9-1.3,6-4.4,7.3-7.3l1-2.2v-68.6V41.1l-1.3-2.7c-1.5-3.1-3.8-5.3-7-6.8l-2.2-1l-106.7-0.1C27.4,30.4,22,30.4,19.6,31.2z M228.8,45.3c2.8,1.2,2.6-2.1,2.6,64c0,66.1,0.1,62.8-2.6,64c-1,0.4-24.7,0.6-101.2,0.6h-100l-1.4-1.4l-1.4-1.4v-61.8V47.5l1.4-1.4l1.4-1.4h100C204,44.7,227.8,44.9,228.8,45.3z"/></g></g></g>
</svg>