<?xml version="1.0" encoding="UTF-8"?>
<svg id="_圖層_1" data-name="圖層_1" xmlns="http://www.w3.org/2000/svg" version="1.1" xmlns:xlink="http://www.w3.org/1999/xlink" viewBox="0 0 256 256">
  <!-- Generator: Adobe Illustrator 29.3.1, SVG Export Plug-In . SVG Version: 2.1.0 Build 151)  -->
  <path d="M18.6,29.4c-2.6,1.2-5.6,4-7.1,6.9l-1.3,2.3-.2,70.6c-.1,49.5.1,71.5.5,73.7.3,1.8,1.4,4,2.5,5.5,3,4,5.4,4.9,15.5,6.2,23.8,2.9,58.3,6.1,72.8,6.7,4.6.2,8.7.4,9.1.5.5.2.5.9-.2,2.8-.8,2.3-1.2,2.7-2.7,2.9-10.2,1.6-13.8,2.3-17.5,3.5-13,4.2-11.6,9.5,3.6,13.4,9.8,2.4,20.1,3.3,37.3,3,16.4-.3,23.4-1.1,32.3-3.6,6.1-1.7,9.6-3.9,9.8-6.3.1-.9-.2-2-.6-2.5-1.9-2.3-12.9-5.8-21.3-6.8-6-.7-6.1-.8-6.9-3.1-.4-1.2-.8-2.4-1-2.8-.2-.5,2.6-.8,8.9-1,25.4-1.1,80.2-6.7,83.6-8.5,3-1.5,5.2-3.6,6.5-6.3l1.4-2.8v-45.8c0-43,.1-45.9,1-46.6.9-.6,1-2.3,1.2-16.5.2-15.2.1-15.9-1-17.4-1-1.4-1.2-2.4-1.2-10.1s-.6-11.7-4.1-15c-4.2-3.9,4.9-3.6-112.6-3.6-93.6,0-106.5,0-108.3.7ZM221.7,111.6v63.4H31.9V48.2h189.8v63.4h0Z"/>
  <rect x="39.3" y="55.8" width="54.6" height="111.6"/>
  <rect x="99.9" y="55.8" width="54.6" height="111.6"/>
  <rect x="161.9" y="55.8" width="54.6" height="111.6"/>
</svg>